<svg width="22" height="22" viewBox="0 0 22 22" fill="none" xmlns="http://www.w3.org/2000/svg">
<path d="M18.5625 4.125H14.4375V3.09375C14.4375 2.63791 14.2564 2.20074 13.9341 1.87841C13.6118 1.55608 13.1746 1.375 12.7188 1.375H9.28125C8.82541 1.375 8.38824 1.55608 8.06591 1.87841C7.74358 2.20074 7.5625 2.63791 7.5625 3.09375V4.125H3.4375C3.25516 4.125 3.0803 4.19743 2.95136 4.32636C2.82243 4.4553 2.75 4.63016 2.75 4.8125C2.75 4.99484 2.82243 5.1697 2.95136 5.29864C3.0803 5.42757 3.25516 5.5 3.4375 5.5H4.16797L4.98438 18.602C5.04539 19.7557 5.92969 20.625 7.04688 20.625H14.9531C16.0759 20.625 16.9426 19.7751 17.0156 18.6055L17.832 5.5H18.5625C18.7448 5.5 18.9197 5.42757 19.0486 5.29864C19.1776 5.1697 19.25 4.99484 19.25 4.8125C19.25 4.63016 19.1776 4.4553 19.0486 4.32636C18.9197 4.19743 18.7448 4.125 18.5625 4.125ZM8.27449 17.875H8.25C8.07183 17.8751 7.90057 17.8061 7.77232 17.6824C7.64407 17.5587 7.56885 17.3901 7.5625 17.212L7.21875 7.58699C7.21225 7.40466 7.27846 7.22721 7.4028 7.09368C7.52713 6.96016 7.69942 6.8815 7.88176 6.875C8.06409 6.8685 8.24154 6.93471 8.37507 7.05905C8.50859 7.18338 8.58725 7.35567 8.59375 7.53801L8.9375 17.163C8.94077 17.2533 8.92622 17.3434 8.89466 17.428C8.8631 17.5127 8.81516 17.5903 8.75359 17.6564C8.69201 17.7226 8.618 17.7759 8.53579 17.8134C8.45359 17.8509 8.36479 17.8718 8.27449 17.875ZM11.6875 17.1875C11.6875 17.3698 11.6151 17.5447 11.4861 17.6736C11.3572 17.8026 11.1823 17.875 11 17.875C10.8177 17.875 10.6428 17.8026 10.5139 17.6736C10.3849 17.5447 10.3125 17.3698 10.3125 17.1875V7.5625C10.3125 7.38016 10.3849 7.2053 10.5139 7.07636C10.6428 6.94743 10.8177 6.875 11 6.875C11.1823 6.875 11.3572 6.94743 11.4861 7.07636C11.6151 7.2053 11.6875 7.38016 11.6875 7.5625V17.1875ZM13.0625 4.125H8.9375V3.09375C8.93698 3.04846 8.94552 3.00353 8.96261 2.96159C8.9797 2.91965 9.005 2.88155 9.03703 2.84953C9.06905 2.8175 9.10715 2.7922 9.14909 2.77511C9.19103 2.75802 9.23596 2.74948 9.28125 2.75H12.7188C12.764 2.74948 12.809 2.75802 12.8509 2.77511C12.8928 2.7922 12.9309 2.8175 12.963 2.84953C12.995 2.88155 13.0203 2.91965 13.0374 2.96159C13.0545 3.00353 13.063 3.04846 13.0625 3.09375V4.125ZM14.4375 17.212C14.4312 17.3901 14.3559 17.5587 14.2277 17.6824C14.0994 17.8061 13.9282 17.8751 13.75 17.875H13.7251C13.6348 17.8718 13.5461 17.8508 13.4639 17.8133C13.3818 17.7758 13.3078 17.7224 13.2463 17.6563C13.1847 17.5902 13.1368 17.5126 13.1053 17.4279C13.0738 17.3433 13.0592 17.2533 13.0625 17.163L13.4062 7.53801C13.4095 7.44772 13.4304 7.35896 13.468 7.27678C13.5055 7.1946 13.5588 7.12061 13.6249 7.05905C13.691 6.99748 13.7686 6.94954 13.8533 6.91796C13.9379 6.88638 14.028 6.87178 14.1182 6.875C14.2085 6.87822 14.2973 6.89918 14.3795 6.93671C14.4617 6.97423 14.5356 7.02757 14.5972 7.09368C14.6588 7.1598 14.7067 7.23739 14.7383 7.32203C14.7699 7.40667 14.7845 7.49671 14.7812 7.58699L14.4375 17.212Z" fill="black"/>
</svg>
