<svg width="32" height="32" viewBox="0 0 32 32" fill="none" xmlns="http://www.w3.org/2000/svg">
<g clip-path="url(#clip0_3_317)">
<path d="M17.253 9.98003L16 17.5L14.747 9.98003C14.7169 9.7982 14.7268 9.612 14.7759 9.43437C14.8251 9.25674 14.9123 9.09193 15.0315 8.95138C15.1507 8.81084 15.2991 8.69792 15.4663 8.62048C15.6336 8.54304 15.8157 8.50293 16 8.50293C16.1843 8.50293 16.3664 8.54304 16.5336 8.62048C16.7009 8.69792 16.8492 8.81084 16.9685 8.95138C17.0877 9.09193 17.1749 9.25674 17.224 9.43437C17.2732 9.612 17.283 9.7982 17.253 9.98003Z" stroke="#FF0000" stroke-width="3" stroke-linecap="round" stroke-linejoin="round"/>
<path d="M16 24C16.5523 24 17 23.5523 17 23C17 22.4477 16.5523 22 16 22C15.4477 22 15 22.4477 15 23C15 23.5523 15.4477 24 16 24Z" stroke="#FF0000" stroke-width="2"/>
<path d="M25.253 9.98003L24 17.5L22.747 9.98003C22.7169 9.7982 22.7268 9.612 22.7759 9.43437C22.8251 9.25674 22.9123 9.09193 23.0315 8.95138C23.1507 8.81084 23.2991 8.69792 23.4663 8.62048C23.6336 8.54304 23.8157 8.50293 24 8.50293C24.1843 8.50293 24.3664 8.54304 24.5336 8.62048C24.7009 8.69792 24.8492 8.81084 24.9685 8.95138C25.0877 9.09193 25.1749 9.25674 25.224 9.43437C25.2732 9.612 25.283 9.7982 25.253 9.98003Z" stroke="#FF0000" stroke-width="3" stroke-linecap="round" stroke-linejoin="round"/>
<path d="M24 24C24.5523 24 25 23.5523 25 23C25 22.4477 24.5523 22 24 22C23.4477 22 23 22.4477 23 23C23 23.5523 23.4477 24 24 24Z" stroke="#FF0000" stroke-width="2"/>
<path d="M9.25298 9.98003L7.99998 17.5L6.74698 9.98003C6.71693 9.7982 6.72681 9.612 6.77594 9.43437C6.82507 9.25674 6.91228 9.09193 7.0315 8.95138C7.15072 8.81084 7.2991 8.69792 7.46634 8.62048C7.63359 8.54304 7.81568 8.50293 7.99998 8.50293C8.18428 8.50293 8.36637 8.54304 8.53362 8.62048C8.70086 8.69792 8.84924 8.81084 8.96846 8.95138C9.08769 9.09193 9.17489 9.25674 9.22402 9.43437C9.27315 9.612 9.28304 9.7982 9.25298 9.98003Z" stroke="#FF0000" stroke-width="3" stroke-linecap="round" stroke-linejoin="round"/>
<path d="M8 24C8.55228 24 9 23.5523 9 23C9 22.4477 8.55228 22 8 22C7.44772 22 7 22.4477 7 23C7 23.5523 7.44772 24 8 24Z" stroke="#FF0000" stroke-width="2"/>
</g>
<defs>
<clipPath id="clip0_3_317">
<rect width="32" height="32" fill="white"/>
</clipPath>
</defs>
</svg>
